<svg xmlns="http://www.w3.org/2000/svg" xmlns:xlink="http://www.w3.org/1999/xlink" width="1200" zoomAndPan="magnify" viewBox="0 0 900 899.99999" height="1200" preserveAspectRatio="xMidYMid meet" version="1.0"><defs><g/><clipPath id="5387ed73ca"><path d="M 332.109375 382.476562 L 353.417969 382.476562 L 353.417969 403.742188 L 332.109375 403.742188 Z M 332.109375 382.476562 " clip-rule="nonzero"/></clipPath><clipPath id="79bff44eda"><path d="M 336.695312 358.0625 L 357.996094 358.0625 L 357.996094 379.410156 L 336.695312 379.410156 Z M 336.695312 358.0625 " clip-rule="nonzero"/></clipPath><clipPath id="fcf20c1872"><path d="M 332.117188 358.066406 L 353.417969 358.066406 L 353.417969 379.410156 L 332.117188 379.410156 Z M 332.117188 358.066406 " clip-rule="nonzero"/></clipPath><clipPath id="8dc7005716"><path d="M 336.691406 382.484375 L 358 382.484375 L 358 403.75 L 336.691406 403.75 Z M 336.691406 382.484375 " clip-rule="nonzero"/></clipPath></defs><g clip-path="url(#5387ed73ca)"><path fill="#101e42" d="M 353.417969 403.742188 L 332.109375 403.742188 L 332.109375 382.476562 Z M 353.417969 403.742188 " fill-opacity="1" fill-rule="nonzero"/></g><g clip-path="url(#79bff44eda)"><path fill="#101e42" d="M 357.996094 358.066406 L 357.996094 379.40625 L 336.695312 379.40625 Z M 357.996094 358.066406 " fill-opacity="1" fill-rule="nonzero"/></g><g clip-path="url(#fcf20c1872)"><path fill="#101e42" d="M 332.117188 379.410156 L 332.117188 358.066406 L 353.417969 358.066406 Z M 332.117188 379.410156 " fill-opacity="1" fill-rule="nonzero"/></g><g clip-path="url(#8dc7005716)"><path fill="#101e42" d="M 336.691406 382.484375 L 358 382.484375 L 358 403.75 Z M 336.691406 382.484375 " fill-opacity="1" fill-rule="nonzero"/></g><g fill="#101e42" fill-opacity="1"><g transform="translate(369.510893, 392.631588)"><g><path d="M 19.8125 0 L 11.390625 -11.6875 L 7.8125 -7.765625 L 7.8125 0 L 3.234375 0 L 3.234375 -27.015625 L 7.8125 -27.015625 L 7.8125 -14.0625 L 19.421875 -27.015625 L 25.453125 -27.015625 L 14.515625 -15.078125 L 25.5625 0 Z M 19.8125 0 "/></g></g></g><g fill="#101e42" fill-opacity="1"><g transform="translate(395.074213, 392.631588)"><g><path d="M 1.71875 -5.03125 C 1.71875 -6.601562 2.226562 -7.863281 3.25 -8.8125 C 4.28125 -9.769531 5.632812 -10.375 7.3125 -10.625 L 12.078125 -11.359375 C 12.992188 -11.484375 13.453125 -11.925781 13.453125 -12.6875 C 13.453125 -13.519531 13.15625 -14.195312 12.5625 -14.71875 C 11.976562 -15.238281 11.101562 -15.5 9.9375 -15.5 C 8.820312 -15.5 7.929688 -15.1875 7.265625 -14.5625 C 6.609375 -13.945312 6.234375 -13.144531 6.140625 -12.15625 L 2.09375 -13.0625 C 2.269531 -14.738281 3.066406 -16.164062 4.484375 -17.34375 C 5.910156 -18.53125 7.71875 -19.125 9.90625 -19.125 C 12.59375 -19.125 14.578125 -18.472656 15.859375 -17.171875 C 17.148438 -15.878906 17.796875 -14.21875 17.796875 -12.1875 L 17.796875 -2.96875 C 17.796875 -1.75 17.867188 -0.757812 18.015625 0 L 13.90625 0 C 13.78125 -0.382812 13.71875 -1.171875 13.71875 -2.359375 C 12.5 -0.398438 10.59375 0.578125 8 0.578125 C 6.125 0.578125 4.609375 0.0234375 3.453125 -1.078125 C 2.296875 -2.191406 1.71875 -3.507812 1.71875 -5.03125 Z M 8.84375 -2.890625 C 10.207031 -2.890625 11.316406 -3.265625 12.171875 -4.015625 C 13.023438 -4.765625 13.453125 -5.988281 13.453125 -7.6875 L 13.453125 -8.53125 L 8.609375 -7.8125 C 6.960938 -7.53125 6.140625 -6.691406 6.140625 -5.296875 C 6.140625 -4.628906 6.378906 -4.0625 6.859375 -3.59375 C 7.335938 -3.125 8 -2.890625 8.84375 -2.890625 Z M 8.84375 -2.890625 "/></g></g></g><g fill="#101e42" fill-opacity="1"><g transform="translate(414.808628, 392.631588)"><g><path d="M 13.71875 -18.671875 L 13.71875 -14.171875 C 13.207031 -14.242188 12.722656 -14.28125 12.265625 -14.28125 C 8.941406 -14.28125 7.28125 -12.46875 7.28125 -8.84375 L 7.28125 0 L 2.859375 0 L 2.859375 -18.546875 L 7.15625 -18.546875 L 7.15625 -15.578125 C 7.59375 -16.566406 8.289062 -17.347656 9.25 -17.921875 C 10.21875 -18.492188 11.3125 -18.78125 12.53125 -18.78125 C 12.9375 -18.78125 13.332031 -18.742188 13.71875 -18.671875 Z M 13.71875 -18.671875 "/></g></g></g><g fill="#101e42" fill-opacity="1"><g transform="translate(428.752235, 392.631588)"><g><path d="M 5.828125 -9.328125 C 5.828125 -7.554688 6.285156 -6.128906 7.203125 -5.046875 C 8.117188 -3.960938 9.320312 -3.421875 10.8125 -3.421875 C 12.257812 -3.421875 13.441406 -3.96875 14.359375 -5.0625 C 15.273438 -6.15625 15.734375 -7.59375 15.734375 -9.375 C 15.734375 -11.125 15.285156 -12.519531 14.390625 -13.5625 C 13.503906 -14.601562 12.320312 -15.125 10.84375 -15.125 C 9.375 -15.125 8.171875 -14.597656 7.234375 -13.546875 C 6.296875 -12.492188 5.828125 -11.085938 5.828125 -9.328125 Z M 20 -27.578125 L 20 -3.390625 C 20 -2.148438 20.0625 -1.019531 20.1875 0 L 15.96875 0 C 15.832031 -0.707031 15.765625 -1.507812 15.765625 -2.40625 C 15.304688 -1.5625 14.59375 -0.875 13.625 -0.34375 C 12.664062 0.1875 11.566406 0.453125 10.328125 0.453125 C 7.679688 0.453125 5.53125 -0.472656 3.875 -2.328125 C 2.226562 -4.179688 1.40625 -6.515625 1.40625 -9.328125 C 1.40625 -12.046875 2.238281 -14.34375 3.90625 -16.21875 C 5.570312 -18.101562 7.6875 -19.046875 10.25 -19.046875 C 11.71875 -19.046875 12.898438 -18.78125 13.796875 -18.25 C 14.703125 -17.71875 15.332031 -17.09375 15.6875 -16.375 L 15.6875 -27.578125 Z M 20 -27.578125 "/></g></g></g><g fill="#101e42" fill-opacity="1"><g transform="translate(451.153469, 392.631588)"><g><path d="M 7.234375 0 L 2.859375 0 L 2.859375 -18.546875 L 7.234375 -18.546875 Z M 3 -23.046875 C 2.445312 -23.609375 2.171875 -24.28125 2.171875 -25.0625 C 2.171875 -25.851562 2.445312 -26.53125 3 -27.09375 C 3.5625 -27.664062 4.238281 -27.953125 5.03125 -27.953125 C 5.84375 -27.953125 6.523438 -27.671875 7.078125 -27.109375 C 7.640625 -26.554688 7.921875 -25.875 7.921875 -25.0625 C 7.921875 -24.28125 7.640625 -23.609375 7.078125 -23.046875 C 6.523438 -22.484375 5.84375 -22.203125 5.03125 -22.203125 C 4.238281 -22.203125 3.5625 -22.484375 3 -23.046875 Z M 3 -23.046875 "/></g></g></g><g fill="#101e42" fill-opacity="1"><g transform="translate(460.715876, 392.631588)"><g><path d="M 7.28125 -10.703125 L 7.28125 0 L 2.859375 0 L 2.859375 -18.546875 L 7.15625 -18.546875 L 7.15625 -16.078125 C 7.738281 -17.085938 8.519531 -17.835938 9.5 -18.328125 C 10.476562 -18.828125 11.523438 -19.078125 12.640625 -19.078125 C 14.828125 -19.078125 16.492188 -18.390625 17.640625 -17.015625 C 18.785156 -15.648438 19.359375 -13.890625 19.359375 -11.734375 L 19.359375 0 L 14.9375 0 L 14.9375 -10.96875 C 14.9375 -12.21875 14.628906 -13.210938 14.015625 -13.953125 C 13.410156 -14.703125 12.445312 -15.078125 11.125 -15.078125 C 9.90625 -15.078125 8.957031 -14.664062 8.28125 -13.84375 C 7.613281 -13.019531 7.28125 -11.972656 7.28125 -10.703125 Z M 7.28125 -10.703125 "/></g></g></g><g fill="#101e42" fill-opacity="1"><g transform="translate(482.05038, 392.631588)"><g><path d="M 1.71875 -5.03125 C 1.71875 -6.601562 2.226562 -7.863281 3.25 -8.8125 C 4.28125 -9.769531 5.632812 -10.375 7.3125 -10.625 L 12.078125 -11.359375 C 12.992188 -11.484375 13.453125 -11.925781 13.453125 -12.6875 C 13.453125 -13.519531 13.15625 -14.195312 12.5625 -14.71875 C 11.976562 -15.238281 11.101562 -15.5 9.9375 -15.5 C 8.820312 -15.5 7.929688 -15.1875 7.265625 -14.5625 C 6.609375 -13.945312 6.234375 -13.144531 6.140625 -12.15625 L 2.09375 -13.0625 C 2.269531 -14.738281 3.066406 -16.164062 4.484375 -17.34375 C 5.910156 -18.53125 7.71875 -19.125 9.90625 -19.125 C 12.59375 -19.125 14.578125 -18.472656 15.859375 -17.171875 C 17.148438 -15.878906 17.796875 -14.21875 17.796875 -12.1875 L 17.796875 -2.96875 C 17.796875 -1.75 17.867188 -0.757812 18.015625 0 L 13.90625 0 C 13.78125 -0.382812 13.71875 -1.171875 13.71875 -2.359375 C 12.5 -0.398438 10.59375 0.578125 8 0.578125 C 6.125 0.578125 4.609375 0.0234375 3.453125 -1.078125 C 2.296875 -2.191406 1.71875 -3.507812 1.71875 -5.03125 Z M 8.84375 -2.890625 C 10.207031 -2.890625 11.316406 -3.265625 12.171875 -4.015625 C 13.023438 -4.765625 13.453125 -5.988281 13.453125 -7.6875 L 13.453125 -8.53125 L 8.609375 -7.8125 C 6.960938 -7.53125 6.140625 -6.691406 6.140625 -5.296875 C 6.140625 -4.628906 6.378906 -4.0625 6.859375 -3.59375 C 7.335938 -3.125 8 -2.890625 8.84375 -2.890625 Z M 8.84375 -2.890625 "/></g></g></g><g fill="#101e42" fill-opacity="1"><g transform="translate(501.784789, 392.631588)"><g><path d="M 7.28125 0 L 2.859375 0 L 2.859375 -27.578125 L 7.28125 -27.578125 Z M 7.28125 0 "/></g></g></g></svg>