<svg width="32" height="31" viewBox="0 0 32 31" fill="none" xmlns="http://www.w3.org/2000/svg">
<path d="M15.515 17.8846C14.6897 17.8846 13.8829 17.6399 13.1966 17.1813C12.5104 16.7228 11.9755 16.071 11.6596 15.3085C11.3438 14.546 11.2611 13.7069 11.4222 12.8974C11.5832 12.0879 11.9806 11.3443 12.5642 10.7607C13.1479 10.1771 13.8914 9.77967 14.7009 9.61865C15.5104 9.45763 16.3495 9.54027 17.112 9.85612C17.8745 10.172 18.5263 10.7068 18.9848 11.3931C19.4434 12.0794 19.6881 12.8862 19.6881 13.7115C19.6842 14.8171 19.2433 15.8763 18.4615 16.658C17.6798 17.4398 16.6206 17.8807 15.515 17.8846ZM17.378 17.8846H13.6521C13.2128 17.8847 12.779 17.9823 12.3821 18.1705C11.9852 18.3586 11.635 18.6326 11.3569 18.9726C11.0721 19.3107 10.8679 19.7091 10.7594 20.1376C10.651 20.5662 10.6413 21.0138 10.7309 21.4466L12.1617 28.6005C12.2987 29.2752 12.6639 29.8822 13.196 30.3192C13.728 30.7562 14.3943 30.9966 15.0828 31H15.9473C16.6358 30.9966 17.3021 30.7562 17.8341 30.3192C18.3662 29.8822 18.7314 29.2752 18.8684 28.6005L20.2992 21.4466C20.3888 21.0138 20.3791 20.5662 20.2707 20.1376C20.1622 19.7091 19.958 19.3107 19.6732 18.9726C19.3951 18.6326 19.0449 18.3586 18.648 18.1705C18.2511 17.9823 17.8173 17.8847 17.378 17.8846ZM23.2949 18.5255C23.1936 18.817 23.2094 19.1364 23.3387 19.4165C23.4681 19.6967 23.7011 19.9158 23.9887 20.0277C24.2762 20.1396 24.596 20.1357 24.8808 20.0168C25.1655 19.8978 25.393 19.6731 25.5155 19.3899C26.0025 18.151 26.2503 16.8311 26.2458 15.5C26.2458 12.654 25.1153 9.92462 23.1028 7.91221C21.0904 5.8998 18.361 4.76924 15.515 4.76924C12.6691 4.76924 9.93966 5.8998 7.92725 7.91221C5.91484 9.92462 4.78428 12.654 4.78428 15.5C4.77837 16.8313 5.02622 18.1514 5.51457 19.3899C5.60113 19.6125 5.75255 19.8039 5.94919 19.9395C6.14583 20.075 6.37864 20.1483 6.61745 20.15C6.76616 20.1505 6.91335 20.12 7.04966 20.0606C7.34355 19.9472 7.58061 19.7221 7.70907 19.4344C7.83752 19.1468 7.84693 18.82 7.73524 18.5255C7.24393 17.2607 7.0684 15.8952 7.22385 14.5472C7.3793 13.1993 7.86104 11.9096 8.62735 10.7898C9.39365 9.67008 10.4214 8.75403 11.6216 8.12106C12.8218 7.48808 14.1582 7.15727 15.515 7.15727C16.8719 7.15727 18.2083 7.48808 19.4085 8.12106C20.6087 8.75403 21.6364 9.67008 22.4027 10.7898C23.1691 11.9096 23.6508 13.1993 23.8062 14.5472C23.9617 15.8952 23.7862 17.2607 23.2949 18.5255V18.5255ZM15.515 7.30997e-06C12.1599 -0.00325018 8.89419 1.08228 6.20863 3.09353C3.52307 5.10478 1.56264 7.93315 0.621828 11.1537C-0.318981 14.3743 -0.189364 17.8133 0.991208 20.9539C2.17178 24.0945 4.33956 26.7673 7.1689 28.5707C7.43571 28.7426 7.75989 28.8015 8.07014 28.7345C8.38039 28.6674 8.65128 28.4798 8.82322 28.213C8.99517 27.9462 9.05408 27.622 8.987 27.3117C8.91992 27.0015 8.73234 26.7306 8.46553 26.5587C6.07242 25.0333 4.23864 22.7728 3.23946 20.1166C2.24028 17.4604 2.12961 14.5518 2.92406 11.8274C3.71852 9.10293 5.37523 6.70967 7.64551 5.00686C9.91579 3.30404 12.6771 2.38355 15.515 2.38355C18.353 2.38355 21.1143 3.30404 23.3846 5.00686C25.6549 6.70967 27.3116 9.10293 28.106 11.8274C28.9005 14.5518 28.7898 17.4604 27.7906 20.1166C26.7915 22.7728 24.9577 25.0333 22.5646 26.5587C22.3491 26.6992 22.1849 26.9057 22.0964 27.1473C22.008 27.3889 22.0001 27.6526 22.0738 27.8991C22.1476 28.1456 22.2991 28.3616 22.5058 28.5148C22.7124 28.6681 22.9631 28.7504 23.2203 28.7495C23.4458 28.746 23.6665 28.6844 23.8612 28.5707C26.6905 26.7673 28.8583 24.0945 30.0389 20.9539C31.2195 17.8133 31.3491 14.3743 30.4083 11.1537C29.4675 7.93315 27.507 5.10478 24.8215 3.09353C22.1359 1.08228 18.8702 -0.00325018 15.515 7.30997e-06V7.30997e-06Z" fill="#F9F9F9"/>
</svg>
